<svg width="239" height="239" xmlns="http://www.w3.org/2000/svg" xmlns:xlink="http://www.w3.org/1999/xlink" xml:space="preserve" overflow="hidden"><g transform="translate(-279 -120)"><path d="M418.417 147.385C418.417 158.385 409.5 167.302 398.5 167.302 387.5 167.302 378.583 158.385 378.583 147.385 378.583 136.386 387.5 127.469 398.5 127.469 409.5 127.469 418.417 136.386 418.417 147.385Z" fill="#FFFFFF"/><path d="M452.773 249.956 438.831 190.704C438.333 188.712 437.337 186.721 435.844 185.227 429.869 180.248 422.898 176.762 414.931 174.273 409.454 173.277 403.977 172.281 398.5 172.281 393.023 172.281 387.546 173.277 382.069 174.771 374.102 176.762 367.131 180.746 361.156 185.725 359.663 187.219 358.667 189.21 358.169 191.202L344.227 250.454C344.227 250.952 343.729 251.948 343.729 252.944 343.729 258.421 348.21 262.902 353.688 262.902 358.169 262.902 362.152 259.417 363.148 255.433L373.604 212.115 373.604 351.531 393.521 351.531 393.521 261.906 403.479 261.906 403.479 351.531 423.396 351.531 423.396 211.617 433.852 254.935C434.848 258.919 438.831 262.404 443.312 262.404 448.79 262.404 453.271 257.923 453.271 252.446 453.271 251.45 452.773 250.454 452.773 249.956Z" fill="#FFFFFF"/></g></svg>